<?xml version="1.0" encoding="UTF-8"?>
<svg id="_Слой_2" data-name="Слой 2" xmlns="http://www.w3.org/2000/svg" viewBox="0 0 180.03 83.69">
  <defs>
    <style>
      .cls-1 {
        fill: #e4003a;
      }

      .cls-2 {
        fill: #003d7c;
      }
    </style>
  </defs>
  <g id="_Слой_1-2" data-name="Слой 1">
    <path class="cls-2" d="m96.24,37.78c-.98-1.03-2.35-1.63-3.76-1.63-2.82,0-5.12,2.3-5.12,5.14s2.3,5.13,5.12,5.13c1.41,0,2.78-.59,3.76-1.63l-1.23-1.13c-.66.64-1.54.98-2.53.98-1.87,0-3.23-1.41-3.23-3.36s1.39-3.36,3.23-3.36c.97,0,1.86.35,2.53.98"/>
    <polyline class="cls-2" points="169.39 46.32 169.39 36.26 167.86 36.26 163.38 42.8 163.38 36.26 161.49 36.26 161.49 46.32 163.01 46.32 167.5 39.78 167.5 46.32"/>
    <path class="cls-2" d="m103.84,44.46l.73,1.87h2.1l-4.09-10.07h-1.1l-4.14,10.07h2.1l.73-1.87m1.84-4.78l1.18,2.99h-2.37l1.19-2.99Z"/>
    <polyline class="cls-2" points="116.8 39.72 116.8 46.32 118.7 46.32 118.7 36.26 117.59 36.26 113.68 41.15 109.78 36.26 108.67 36.26 108.67 46.32 110.57 46.32 110.57 39.72 113.68 43.6"/>
    <path class="cls-2" d="m127.35,44.46l.73,1.87h2.1l-4.09-10.07h-1.1l-4.14,10.07h2.1l.73-1.87m1.84-4.78l1.17,2.99h-2.37l1.19-2.99Z"/>
    <path class="cls-2" d="m139.78,40.11c0-2.3-1.8-3.85-4.48-3.85h-3.29v10.07h1.89v-2.34h1.39c2.68,0,4.48-1.55,4.48-3.87m-5.88-2.08h1.55c1.26,0,2.53.64,2.53,2.08,0,1.54-1.31,2.1-2.53,2.1h-1.55v-4.17Z"/>
    <path class="cls-2" d="m149.08,38.91l1.23-1.13c-.98-1.03-2.35-1.63-3.76-1.63-2.82,0-5.12,2.3-5.12,5.14s2.3,5.14,5.12,5.14c1.41,0,2.78-.59,3.76-1.63l-1.23-1.13c-.66.64-1.54.98-2.53.98-1.87,0-3.23-1.41-3.23-3.36s1.39-3.36,3.23-3.36c.96,0,1.86.35,2.53.98"/>
    <polyline class="cls-2" points="95.64 59.56 95.64 49.49 87.9 49.49 87.9 59.56 89.79 59.56 89.79 51.27 93.75 51.27 93.75 59.56"/>
    <path class="cls-2" d="m102.96,49.39c-2.82,0-5.12,2.3-5.12,5.14s2.3,5.13,5.12,5.13,5.14-2.3,5.14-5.13-2.3-5.14-5.14-5.14m0,8.5c-1.87,0-3.23-1.41-3.23-3.36s1.39-3.36,3.23-3.36,3.24,1.41,3.24,3.36-1.37,3.36-3.24,3.36"/>
    <polyline class="cls-2" points="116.03 59.56 118.13 59.56 114.05 49.49 112.95 49.49 108.8 59.56 110.9 59.56 113.47 52.96"/>
    <polyline class="cls-2" points="128.04 59.56 128.04 49.49 126.5 49.49 122.03 56.04 122.03 49.49 120.14 49.49 120.14 59.56 121.65 59.56 126.14 53.02 126.14 59.56"/>
    <polyline class="cls-2" points="137.49 49.49 130.01 49.49 130.01 51.27 132.8 51.27 132.8 59.56 134.7 59.56 134.7 51.27 137.49 51.27"/>
    <polyline class="cls-2" points="146.28 51.27 146.28 49.5 139.61 49.5 139.61 59.56 146.28 59.56 146.28 57.79 141.51 57.79 141.51 55.39 145.91 55.39 145.91 53.61 141.51 53.61 141.51 51.27"/>
    <polyline class="cls-2" points="154.81 59.56 156.96 59.56 153.46 54.4 156.73 49.49 154.58 49.49 152.43 52.65 150.23 49.49 148.09 49.49 151.35 54.31 147.85 59.56 150.01 59.56 152.38 56.06"/>
    <polyline class="cls-2" points="156.71 41.16 159.98 36.26 157.83 36.26 155.1 40.31 154.17 40.31 154.17 36.26 152.27 36.26 152.27 46.32 154.17 46.32 154.17 42.14 155.25 42.14 158.06 46.32 160.21 46.32"/>
    <path class="cls-1" d="m177.61,33.68c0,.76-.62,1.38-1.38,1.38s-1.38-.62-1.38-1.38.62-1.38,1.38-1.38,1.38.62,1.38,1.38"/>
    <polyline class="cls-2" points="180.03 46.32 180.03 36.26 178.5 36.26 174.02 42.8 174.02 36.26 172.13 36.26 172.13 46.32 173.65 46.32 178.14 39.78 178.14 46.32"/>
    <path class="cls-1" d="m47.77,41.03c0,2.82-2.29,5.11-5.11,5.11s-5.11-2.29-5.11-5.11,2.29-5.11,5.11-5.11,5.11,2.29,5.11,5.11"/>
    <path class="cls-2" d="m42.69,71.37c-16.73,0-30.35-13.61-30.35-30.35,0-8.12,3.17-15.76,8.93-21.5.33-.33.86-.33,1.19,0,.33.33.33.86,0,1.19-5.44,5.42-8.43,12.63-8.43,20.3,0,15.81,12.86,28.67,28.67,28.67,8.65,0,16.75-3.85,22.23-10.56.29-.36.82-.41,1.18-.12.36.29.41.82.12,1.18-5.79,7.11-14.37,11.18-23.53,11.18"/>
    <path class="cls-2" d="m77.32,32.83c-.26,0-.49-.17-.55-.43-3.75-14.86-17.06-25.75-32.38-26.47-.56-.03-1.13-.04-1.7-.04-.32,0-.57-.26-.57-.57s.26-.57.57-.57c.59,0,1.18.01,1.76.04,15.81.75,29.56,11.99,33.43,27.34.08.31-.11.62-.42.7-.05.01-.09.02-.14.02"/>
    <path class="cls-2" d="m13.85,20.94c-4.12,5.91-6.3,12.85-6.3,20.08,0,3.67.55,7.24,1.64,10.66-.38.08-.75.21-1.08.4-1.14-3.56-1.72-7.26-1.72-11.06,0-7.46,2.25-14.64,6.51-20.74.18-.26.54-.32.8-.14.26.18.32.54.14.8"/>
    <path class="cls-2" d="m42.71,77.31c-4.84,0-9.53-.94-13.96-2.78-.29-.12-.43-.46-.31-.75.12-.29.46-.43.75-.31,4.29,1.79,8.84,2.69,13.52,2.69,7.09,0,13.92-2.1,19.75-6.07.26-.18.62-.11.8.15.18.26.11.62-.15.79-6.03,4.1-13.08,6.27-20.4,6.27"/>
    <path class="cls-2" d="m42.67,83.69c-1.75,0-3.51-.11-5.23-.32-.46-.06-.79-.48-.73-.94.06-.46.47-.78.94-.73,1.66.2,3.35.3,5.03.3,3.86,0,7.68-.54,11.35-1.59.45-.13.91.13,1.04.57.13.45-.13.91-.57,1.04-3.82,1.1-7.8,1.66-11.82,1.66"/>
    <path class="cls-2" d="m4.48,58.96c-.32,0-.63-.19-.77-.5-2.46-5.5-3.71-11.36-3.71-17.43s1.25-11.94,3.71-17.44c.19-.42.68-.61,1.11-.42.42.19.61.69.42,1.11-2.37,5.28-3.57,10.92-3.57,16.75s1.2,11.47,3.56,16.75c.19.42,0,.92-.42,1.11-.11.05-.23.07-.34.07"/>
    <path class="cls-2" d="m82.01,23.94c-.08,0-.16,0-.24.01C76.73,12.37,66.82,3.59,54.53.03c-.45-.13-.91.13-1.04.57-.13.45.13.91.57,1.04,11.79,3.41,21.3,11.82,26.15,22.92-.66.53-1.09,1.34-1.09,2.26,0,1.6,1.29,2.89,2.89,2.89s2.89-1.29,2.89-2.89-1.29-2.89-2.89-2.89"/>
    <path class="cls-2" d="m71.79,32.48c-1.63-5.55-4.84-10.56-9.27-14.4-5.51-4.77-12.56-7.4-19.86-7.4-1.76,0-3.53.15-5.25.45-.46.08-.76.51-.68.97s.52.77.97.68c1.63-.29,3.3-.43,4.96-.43,6.89,0,13.56,2.48,18.76,6.99,4.16,3.61,7.18,8.31,8.72,13.51-1.11.57-1.87,1.72-1.87,3.06,0,1.9,1.54,3.44,3.44,3.44s3.44-1.54,3.44-3.44-1.5-3.4-3.37-3.44"/>
    <path class="cls-2" d="m42.69,17.16c-13.17,0-23.87,10.71-23.87,23.87,0,.33,0,.66.02.99.36-.1.75-.15,1.14-.15,0-.28-.02-.56-.02-.84,0-12.53,10.2-22.72,22.73-22.72s22.72,10.2,22.72,22.72-10.19,22.73-22.72,22.73c-9.64,0-17.89-6.03-21.19-14.51,1.13-.56,1.91-1.73,1.91-3.08,0-1.9-1.54-3.44-3.44-3.44s-3.44,1.54-3.44,3.44,1.54,3.44,3.44,3.44c.14,0,.29,0,.43-.03,3.44,8.95,12.13,15.33,22.29,15.33,13.16,0,23.87-10.71,23.87-23.87s-10.71-23.87-23.87-23.87"/>
    <path class="cls-2" d="m12.79,55.22c0-1.6-1.29-2.89-2.89-2.89s-2.89,1.29-2.89,2.89,1.29,2.89,2.89,2.89,2.89-1.29,2.89-2.89"/>
    <path class="cls-2" d="m42.69,29.56c-4.6,0-8.57,2.72-10.4,6.63.4.04.78.13,1.14.26,1.69-3.41,5.2-5.75,9.26-5.75,5.69,0,10.32,4.63,10.32,10.32s-4.63,10.33-10.32,10.33c-4.4,0-8.16-2.77-9.64-6.65h0c1.53-.53,2.63-1.97,2.63-3.68,0-2.15-1.74-3.89-3.89-3.89s-3.89,1.74-3.89,3.89,1.74,3.88,3.89,3.88c.04,0,.08,0,.12,0,1.59,4.42,5.82,7.59,10.78,7.59,6.32,0,11.47-5.15,11.47-11.47s-5.15-11.47-11.47-11.47"/>
    <path class="cls-2" d="m55.89,41.02c0,2.15,1.74,3.89,3.89,3.89s3.89-1.74,3.89-3.89c0-2.01-1.52-3.66-3.47-3.86-1.77-8.03-8.95-14.06-17.5-14.06-9.89,0-17.93,8.04-17.93,17.93s8.04,17.93,17.93,17.93c8.21,0,15.14-5.54,17.26-13.08-.06,0-.11,0-.17,0-.53,0-1.04-.09-1.51-.24-1.99,6.72-8.22,11.64-15.58,11.64-8.96,0-16.25-7.29-16.25-16.25s7.29-16.25,16.25-16.25c7.7,0,14.16,5.38,15.83,12.58-1.53.53-2.62,1.97-2.62,3.67"/>
  </g>
</svg>